<?xml version="1.0" encoding="UTF-8" standalone="no"?>
<!-- Created with Inkscape (http://www.inkscape.org/) -->

<svg
   width="135.46667mm"
   height="135.46664mm"
   viewBox="0 0 135.46667 135.46664"
   version="1.1"
   id="svg5"
   xml:space="preserve"
   sodipodi:docname="firstdraft ember.svg"
   inkscape:version="1.2.2 (b0a8486541, 2022-12-01)"
   inkscape:export-filename="Pictures/embr/embricon-big-svg.svg"
   inkscape:export-xdpi="96"
   inkscape:export-ydpi="96"
   xmlns:inkscape="http://www.inkscape.org/namespaces/inkscape"
   xmlns:sodipodi="http://sodipodi.sourceforge.net/DTD/sodipodi-0.dtd"
   xmlns="http://www.w3.org/2000/svg"
   xmlns:svg="http://www.w3.org/2000/svg"><sodipodi:namedview
     id="namedview7"
     pagecolor="#ffffff"
     bordercolor="#000000"
     borderopacity="0.25"
     inkscape:showpageshadow="2"
     inkscape:pageopacity="0.0"
     inkscape:pagecheckerboard="0"
     inkscape:deskcolor="#d1d1d1"
     inkscape:document-units="mm"
     showgrid="false"
     inkscape:zoom="2.8284272"
     inkscape:cx="532.98172"
     inkscape:cy="187.02974"
     inkscape:window-width="1920"
     inkscape:window-height="1054"
     inkscape:window-x="0"
     inkscape:window-y="0"
     inkscape:window-maximized="0"
     inkscape:current-layer="text375-1-0-9"
     showguides="true"><sodipodi:guide
       position="1354.6801,-143.10002"
       orientation="1,0"
       id="guide24367"
       inkscape:locked="false" /><sodipodi:guide
       position="590.98056,-89.541827"
       orientation="0,-1"
       id="guide37999"
       inkscape:locked="false" /><sodipodi:guide
       position="593.55929,-86.169627"
       orientation="1,0"
       id="guide38001"
       inkscape:locked="false" /></sodipodi:namedview><defs
     id="defs2" /><g
     style="clip-rule:evenodd;fill-rule:evenodd;image-rendering:optimizeQuality;shape-rendering:geometricPrecision;text-rendering:geometricPrecision"
     id="g39257"
     transform="matrix(0.00850092,0,0,0.00850092,1592.2689,1065.9638)"><g
       id="Layer_x0020_1"
       inkscape:label="Layer 1"
       inkscape:groupmode="layer">
  <metadata
   id="CorelCorpID_0Corel-Layer" />
  
 <circle
   style="clip-rule:evenodd;fill:#373555;fill-opacity:1;fill-rule:evenodd;stroke:none;stroke-width:655.719;stroke-miterlimit:2.5;stroke-dasharray:none;stroke-opacity:1;image-rendering:optimizeQuality;shape-rendering:geometricPrecision;text-rendering:geometricPrecision"
   id="path52682-7-5-2"
   cy="-117426.17"
   cx="-179337.72"
   r="7967.7651" /><path
   fill="#ffffff"
   fill-rule="nonzero"
   d="m -174544.88,-118676.08 c 200.45,-1340.29 -819.94,-2060.74 -2215.27,-2541.36 l 452.65,-1815.54 -1105.17,-275.38 -440.65,1767.74 c -290.54,-72.47 -588.92,-140.74 -885.47,-208.44 l 443.85,-1779.41 -1104.49,-275.38 -452.9,1814.96 c -240.43,-54.75 -476.58,-108.85 -705.68,-165.85 l 1.27,-5.72 -1524.05,-380.59 -294,1180.4 c 0,0 819.94,187.96 802.68,199.53 447.52,111.69 528.46,407.96 515.02,642.77 l -515.62,2068.33 c 30.81,7.82 70.79,19.15 114.89,36.87 -36.87,-9.16 -76.1,-19.15 -116.81,-28.9 l -722.72,2897.43 c -54.7,135.97 -193.52,340.02 -506.42,262.53 11.08,16.05 -803.26,-200.45 -803.26,-200.45 l -548.7,1265.07 1438.21,358.52 c 267.56,67.1 529.75,137.3 787.95,203.32 l -457.34,1836.37 1103.9,275.38 452.9,-1816.88 c 301.57,81.88 594.24,157.38 880.75,228.58 l -451.37,1808.3 1105.22,275.38 457.28,-1832.92 c 1884.56,356.67 3301.6,212.86 3898.05,-1491.7 480.61,-1372.39 -23.92,-2163.98 -1015.38,-2680.2 722.11,-166.53 1266.05,-641.49 1411.07,-1622.61 h -0.49 z m -2525.06,3540.79 c -341.55,1372.39 -2652.24,630.53 -3401.38,444.48 l 606.87,-2432.85 c 749.12,187.01 3151.46,557.12 2794.55,1988.37 z m 341.78,-3560.67 c -311.56,1248.33 -2234.76,614.12 -2858.64,458.61 l 550.24,-2206.47 c 623.86,155.51 2632.97,445.77 2308.5,1747.86 z"
   id="path39242-1"
   style="clip-rule:evenodd;fill:#fdfce3;fill-opacity:1;fill-rule:evenodd;stroke:none;stroke-width:4.92283;stroke-opacity:1;image-rendering:optimizeQuality;shape-rendering:geometricPrecision;text-rendering:geometricPrecision" /></g></g></svg>
