<?xml version="1.0" encoding="UTF-8" standalone="no"?>
<!-- Created with Inkscape (http://www.inkscape.org/) -->

<svg
   width="140.58429mm"
   height="135.46667mm"
   viewBox="0 0 140.58429 135.46667"
   version="1.1"
   id="svg5"
   xml:space="preserve"
   sodipodi:docname="firstdraft ember.svg"
   inkscape:version="1.2.2 (b0a8486541, 2022-12-01)"
   inkscape:export-filename="Pictures/embr/embricon-big-svg.svg"
   inkscape:export-xdpi="96"
   inkscape:export-ydpi="96"
   xmlns:inkscape="http://www.inkscape.org/namespaces/inkscape"
   xmlns:sodipodi="http://sodipodi.sourceforge.net/DTD/sodipodi-0.dtd"
   xmlns="http://www.w3.org/2000/svg"
   xmlns:svg="http://www.w3.org/2000/svg"><sodipodi:namedview
     id="namedview7"
     pagecolor="#ffffff"
     bordercolor="#000000"
     borderopacity="0.25"
     inkscape:showpageshadow="2"
     inkscape:pageopacity="0.0"
     inkscape:pagecheckerboard="0"
     inkscape:deskcolor="#d1d1d1"
     inkscape:document-units="mm"
     showgrid="false"
     inkscape:zoom="2.8284272"
     inkscape:cx="532.98172"
     inkscape:cy="187.02974"
     inkscape:window-width="1920"
     inkscape:window-height="1054"
     inkscape:window-x="0"
     inkscape:window-y="0"
     inkscape:window-maximized="0"
     inkscape:current-layer="text375-1-0-9"
     showguides="true"><sodipodi:guide
       position="1356.51,-286.84739"
       orientation="1,0"
       id="guide24367"
       inkscape:locked="false" /><sodipodi:guide
       position="592.81044,-233.28919"
       orientation="0,-1"
       id="guide37999"
       inkscape:locked="false" /><sodipodi:guide
       position="595.38917,-229.91699"
       orientation="1,0"
       id="guide38001"
       inkscape:locked="false" /></sodipodi:namedview><defs
     id="defs2" /><g
     style="clip-rule:evenodd;fill-rule:evenodd;image-rendering:optimizeQuality;shape-rendering:geometricPrecision;text-rendering:geometricPrecision"
     id="g39257"
     transform="matrix(0.00850092,0,0,0.00850092,1594.0988,1209.7112)"><ellipse
       style="clip-rule:evenodd;fill:#373555;fill-opacity:1;fill-rule:evenodd;stroke:none;stroke-width:667.99;stroke-miterlimit:2.5;stroke-dasharray:none;stroke-opacity:1;image-rendering:optimizeQuality;shape-rendering:geometricPrecision;text-rendering:geometricPrecision"
       id="path52682-7-5-9-0"
       ry="7967.7651"
       rx="8268.7686"
       cy="-134335.8"
       cx="-179251.97" /><path
       d="m -177919.53,-137621.12 v 14.38 c -108.83,-8.22 -217.66,-14.38 -328.54,-14.38 h -2628.25 c -338.8,0 -667.33,43.12 -981.49,123.19 -2.05,-41.06 -4.1,-82.12 -4.1,-123.19 0,-1088.27 882.92,-1971.19 1971.19,-1971.19 1088.26,0 1971.19,882.92 1971.19,1971.19 z m -328.54,657.06 c 71.87,0 143.74,2.06 213.56,6.17 86.23,6.15 172.47,14.36 258.71,26.69 361.39,-420.94 899.35,-689.92 1498.93,-689.92 h 236.12 c 213.55,0 369.61,201.23 318.28,408.61 l -283.37,1133.44 c 324.43,303.89 589.31,673.48 770,1086.2 h 273.09 c 363.44,0 657.07,293.63 657.07,657.07 v 1971.2 c 0,363.43 -293.63,657.06 -657.07,657.06 h -657.06 c -186.85,248.45 -408.61,470.21 -657.06,657.06 v 1314.13 c 0,363.43 -293.63,657.06 -657.06,657.06 h -657.07 c -363.44,0 -657.07,-293.63 -657.07,-657.06 v -657.06 h -2628.25 v 657.06 c 0,363.43 -293.63,657.06 -657.07,657.06 h -657.06 c -363.44,0 -657.06,-293.63 -657.06,-657.06 v -1314.13 c -716.61,-537.97 -1205.3,-1361.36 -1297.7,-2299.72 -98.7,-475.86 -46.57,-565.42 49.28,-985.6 248.45,-1227.89 1184.77,-2207.33 2388.02,-2521.48 264.87,-69.82 544.13,-106.78 831.59,-106.78 z m 1314.14,2792.52 c 0,-130.7 -51.92,-256.04 -144.34,-348.46 -92.42,-92.42 -217.76,-144.34 -348.46,-144.34 -130.7,0 -256.04,51.92 -348.46,144.34 -92.42,92.42 -144.34,217.76 -144.34,348.46 0,130.7 51.92,256.04 144.34,348.46 92.42,92.42 217.76,144.34 348.46,144.34 130.7,0 256.04,-51.92 348.46,-144.34 92.42,-92.42 144.34,-217.76 144.34,-348.46 z"
       id="path9449"
       style="fill:#fdfce3;fill-opacity:1;stroke:none;stroke-width:20.5332;stroke-opacity:1"
       sodipodi:nodetypes="scsscssssccsscccssssccssssccssssccccsssssssssss"
       inkscape:export-filename="Pictures/embr/stakeicon.svg"
       inkscape:export-xdpi="96"
       inkscape:export-ydpi="96" /><ellipse
       style="clip-rule:evenodd;fill:none;fill-opacity:1;fill-rule:evenodd;stroke:#fdfce3;stroke-width:580.924;stroke-miterlimit:2.5;stroke-dasharray:none;stroke-opacity:1;image-rendering:optimizeQuality;shape-rendering:geometricPrecision;text-rendering:geometricPrecision"
       id="path52682-0-3"
       ry="6929.2378"
       rx="7191.0088"
       cy="-134335.8"
       cx="-179251.97" /></g></svg>
