<?xml version="1.0" encoding="UTF-8" standalone="no"?>
<!-- Created with Inkscape (http://www.inkscape.org/) -->

<svg
   width="156.62833mm"
   height="52.053326mm"
   viewBox="0 0 156.62833 52.053326"
   version="1.1"
   id="svg5"
   xml:space="preserve"
   sodipodi:docname="firstdraft ember.svg"
   inkscape:version="1.2.2 (b0a8486541, 2022-12-01)"
   inkscape:export-filename="Pictures/embr/embricon-big-svg.svg"
   inkscape:export-xdpi="96"
   inkscape:export-ydpi="96"
   xmlns:inkscape="http://www.inkscape.org/namespaces/inkscape"
   xmlns:sodipodi="http://sodipodi.sourceforge.net/DTD/sodipodi-0.dtd"
   xmlns:xlink="http://www.w3.org/1999/xlink"
   xmlns="http://www.w3.org/2000/svg"
   xmlns:svg="http://www.w3.org/2000/svg"><sodipodi:namedview
     id="namedview7"
     pagecolor="#ffffff"
     bordercolor="#000000"
     borderopacity="0.25"
     inkscape:showpageshadow="2"
     inkscape:pageopacity="0.0"
     inkscape:pagecheckerboard="0"
     inkscape:deskcolor="#d1d1d1"
     inkscape:document-units="mm"
     showgrid="false"
     inkscape:zoom="0.1767767"
     inkscape:cx="-1128.5424"
     inkscape:cy="1979.899"
     inkscape:window-width="1920"
     inkscape:window-height="1054"
     inkscape:window-x="0"
     inkscape:window-y="0"
     inkscape:window-maximized="0"
     inkscape:current-layer="layer1"
     showguides="true"><sodipodi:guide
       position="435.84239,179.69207"
       orientation="1,0"
       id="guide24367"
       inkscape:locked="false" /><sodipodi:guide
       position="-327.85718,233.25027"
       orientation="0,-1"
       id="guide37999"
       inkscape:locked="false" /><sodipodi:guide
       position="-325.27845,236.62247"
       orientation="1,0"
       id="guide38001"
       inkscape:locked="false" /></sodipodi:namedview><defs
     id="defs2"><linearGradient
       inkscape:collect="always"
       id="linearGradient7341"><stop
         style="stop-color:#f97871;stop-opacity:1;"
         offset="0"
         id="stop7337" /><stop
         style="stop-color:#fda48c;stop-opacity:1;"
         offset="1"
         id="stop7339" /></linearGradient><linearGradient
       inkscape:collect="always"
       xlink:href="#linearGradient7341"
       id="linearGradient7343"
       x1="-1329.3998"
       y1="8.4569874"
       x2="-1317.2332"
       y2="8.4569874"
       gradientUnits="userSpaceOnUse" /><linearGradient
       inkscape:collect="always"
       xlink:href="#linearGradient7341"
       id="linearGradient8752"
       gradientUnits="userSpaceOnUse"
       x1="-1329.3998"
       y1="17.324253"
       x2="-1308.5629"
       y2="-6.0590558" /><linearGradient
       inkscape:collect="always"
       xlink:href="#linearGradient7341"
       id="linearGradient8754"
       gradientUnits="userSpaceOnUse"
       x1="-1329.3998"
       y1="17.324253"
       x2="-1308.5629"
       y2="-6.0590558" /></defs><g
     inkscape:label="Layer 1"
     inkscape:groupmode="layer"
     id="layer1"
     transform="translate(-64.033692,-22.902836)"><text
       xml:space="preserve"
       style="font-style:normal;font-variant:normal;font-weight:normal;font-stretch:normal;font-size:53.0733px;font-family:'Baloo 2';-inkscape-font-specification:'Baloo 2, Normal';font-variant-ligatures:normal;font-variant-caps:normal;font-variant-numeric:normal;font-variant-east-asian:normal;letter-spacing:-0.660576px;fill:#fefcdc;fill-opacity:1;stroke-width:0"
       x="103.38811"
       y="73.589172"
       id="text375-1-0-9"
       inkscape:export-filename="Pictures/embr/embr-with-text.svg"
       inkscape:export-xdpi="96"
       inkscape:export-ydpi="96"><tspan
         sodipodi:role="line"
         id="tspan373-7-3-6"
         style="font-style:normal;font-variant:normal;font-weight:normal;font-stretch:normal;font-size:53.0733px;font-family:'Baloo 2';-inkscape-font-specification:'Baloo 2, Normal';font-variant-ligatures:normal;font-variant-caps:normal;font-variant-numeric:normal;font-variant-east-asian:normal;fill:#fefcdc;fill-opacity:1;stroke-width:0"
         x="103.38811"
         y="73.589172">embr</tspan></text><g
       id="g1554-7-0-9-1-7"
       inkscape:label="flame"
       style="display:inline;fill:url(#linearGradient7343);fill-opacity:1"
       transform="matrix(2.8902377,0,0,2.8902377,3906.3151,24.48679)"
       inkscape:export-filename="Documents/EmbrLanding/nefa/assets/img/logo/embr-with-text.svg"
       inkscape:export-xdpi="96"
       inkscape:export-ydpi="96"><path
         style="fill:url(#linearGradient8754);fill-opacity:1;stroke-width:0.264583"
         d="m -1329.1785,13.211134 c 0,0 -0.1381,-0.699129 -0.1961,-1.582356 -0.058,-0.883226 -0.036,-1.9505488 0.2841,-2.6869357 0.32,-0.736387 0.8657,-1.549481 1.4213,-2.2595685 0.9564,-1.2714676 2.3189,-2.4564628 3.2274,-3.8689757 0.308,-0.47885 0.5439,-1.0049368 0.7397,-1.5395525 0.1113,-0.3038793 0.1968,-0.61951359 0.2442,-0.93964456 0.043,-0.29106241 0.069,-0.43448971 0.035,-0.88200804 -7e-4,-0.009283 0.2559,0.48322347 0.5386,1.11218606 0.2827,0.62896254 0.5413,1.26547024 0.7088,1.93003354 0.085,0.336729 0.1228,0.6849242 0.1474,1.0313147 0.025,0.3552332 0.024,0.7130492 0,1.0683898 -0.1484,2.1867171 -1.3727,3.9914326 -2.4017,5.8121979 -0.1831,0.354031 -0.3581,0.713075 -0.5208,1.077451 -0.1627,0.364377 -0.3131,0.734087 -0.4472,1.109449 -0.043,0.120607 -0.08,0.243358 -0.1134,0.367193 -0.033,0.123835 -0.063,0.248753 -0.091,0.373694 -0.032,0.138929 -0.062,0.278451 -0.087,0.418661 -0.026,0.14021 -0.048,0.281107 -0.062,0.422787 -0.013,0.124857 -0.022,0.250373 -0.026,0.376014 v 0.376766 c 0.01,0.187765 0.02,0.377134 0.042,0.564644 0.022,0.18751 0.054,0.37316 0.1078,0.553487 0.074,0.250108 0.1538,0.494816 0.2586,0.731599 0.1048,0.236784 0.2347,0.465642 0.4094,0.684051 -0.7818,-0.02803 -1.4481,-0.526543 -1.9213,-1.145094 -1.2036,-1.622355 -0.5316,-3.183767 -0.3404,-4.890112 0.063,-0.633492 0.048,-1.250813 -0.1182,-1.7913447 0,-0.00146 -0.076,0.1937007 -0.1764,0.4308447 -0.1006,0.237144 -0.2261,0.516271 -0.3254,0.682743 -0.1153,0.193183 -0.2176,0.355352 -0.3203,0.520045 -0.1026,0.164693 -0.2056,0.331911 -0.3221,0.53519 -0.197,0.343683 -0.3716,0.695395 -0.4969,0.961187 -0.1253,0.265793 -0.2013,0.445664 -0.2013,0.445664 h 1e-4 v 0 z"
         id="path974-2-6-0-7-5"
         sodipodi:nodetypes="csccaaassaaccsssssssssssccccssssscscc"
         inkscape:label="big flame"
         inkscape:export-filename="./lusd-icon.png"
         inkscape:export-xdpi="96"
         inkscape:export-ydpi="96" /><path
         style="fill:url(#linearGradient8752);fill-opacity:1;stroke-width:0.264583"
         d="m -1322.656,12.959776 c 0.1831,-0.148058 0.3915,-0.262041 0.5817,-0.400886 0.3986,-0.290962 0.9113,-0.669476 1.1716,-0.905033 0.5049,-0.453865 0.9179,-0.780194 1.2957,-1.245014 0.2507,-0.308428 0.5172,-0.6302473 0.6329,-1.01049 0.1377,-0.4527054 0.089,-0.9478681 0.044,-1.4188705 -0.021,-0.2183104 -0.1456,-0.6416531 -0.1456,-0.6416531 1.0632,1.0174406 1.6519,2.0023058 1.7983,3.2979266 0.028,0.247323 0.046,0.496476 0.044,0.745351 -0.019,1.363743 -0.4925,2.938268 -1.237,3.931342 -0.9169,1.118284 -1.4947,1.618783 -3.6167,2.126963 1.3083,-1.151472 2.3063,-1.862693 2.4929,-3.733816 -0.2767,0.188768 -0.3608,0.343868 -0.4305,0.416559 -1.1256,1.173632 -2.169,1.096891 -3.3156,1.203507 -0.5095,0.04738 -0.7157,0.208793 -0.9061,0.277483 0.024,-1.133254 0.5571,-1.940603 1.5904,-2.643369 z"
         id="path979-2-1-9-5-3"
         sodipodi:nodetypes="cacaaaccccccsscc"
         inkscape:label="little flame" /></g></g></svg>
