<?xml version="1.0" encoding="UTF-8" standalone="no"?>
<!-- Created with Inkscape (http://www.inkscape.org/) -->

<svg
   width="140.58423mm"
   height="135.46667mm"
   viewBox="0 0 140.58423 135.46667"
   version="1.1"
   id="svg5"
   xml:space="preserve"
   sodipodi:docname="firstdraft ember.svg"
   inkscape:version="1.2.2 (b0a8486541, 2022-12-01)"
   inkscape:export-filename="Pictures/embr/embricon-big-svg.svg"
   inkscape:export-xdpi="96"
   inkscape:export-ydpi="96"
   xmlns:inkscape="http://www.inkscape.org/namespaces/inkscape"
   xmlns:sodipodi="http://sodipodi.sourceforge.net/DTD/sodipodi-0.dtd"
   xmlns="http://www.w3.org/2000/svg"
   xmlns:svg="http://www.w3.org/2000/svg"><sodipodi:namedview
     id="namedview7"
     pagecolor="#ffffff"
     bordercolor="#000000"
     borderopacity="0.25"
     inkscape:showpageshadow="2"
     inkscape:pageopacity="0.0"
     inkscape:pagecheckerboard="0"
     inkscape:deskcolor="#d1d1d1"
     inkscape:document-units="mm"
     showgrid="false"
     inkscape:zoom="2.8284272"
     inkscape:cx="532.98172"
     inkscape:cy="187.02974"
     inkscape:window-width="1920"
     inkscape:window-height="1054"
     inkscape:window-x="0"
     inkscape:window-y="0"
     inkscape:window-maximized="0"
     inkscape:current-layer="text375-1-0-9"
     showguides="true"><sodipodi:guide
       position="1186.8124,-286.84739"
       orientation="1,0"
       id="guide24367"
       inkscape:locked="false" /><sodipodi:guide
       position="423.11289,-233.2892"
       orientation="0,-1"
       id="guide37999"
       inkscape:locked="false" /><sodipodi:guide
       position="425.69162,-229.917"
       orientation="1,0"
       id="guide38001"
       inkscape:locked="false" /></sodipodi:namedview><defs
     id="defs2" /><g
     style="clip-rule:evenodd;fill-rule:evenodd;image-rendering:optimizeQuality;shape-rendering:geometricPrecision;text-rendering:geometricPrecision"
     id="g39257"
     transform="matrix(0.00850092,0,0,0.00850092,1424.4013,1209.7112)"><ellipse
       style="clip-rule:evenodd;fill:#373555;fill-opacity:1;fill-rule:evenodd;stroke:none;stroke-width:667.99;stroke-miterlimit:2.5;stroke-dasharray:none;stroke-opacity:1;image-rendering:optimizeQuality;shape-rendering:geometricPrecision;text-rendering:geometricPrecision"
       id="path52682-7-5-9-0-0"
       ry="7967.7651"
       rx="8268.7686"
       cy="-134335.8"
       cx="-159289.72" /><ellipse
       style="clip-rule:evenodd;fill:none;fill-opacity:1;fill-rule:evenodd;stroke:#fdfce3;stroke-width:580.924;stroke-miterlimit:2.5;stroke-dasharray:none;stroke-opacity:1;image-rendering:optimizeQuality;shape-rendering:geometricPrecision;text-rendering:geometricPrecision"
       id="path52682-0-3-63"
       ry="6929.2378"
       rx="7191.0088"
       cy="-134335.8"
       cx="-159289.72" /><path
       id="path9629"
       style="clip-rule:evenodd;fill:#ffffff;fill-opacity:1;fill-rule:evenodd;stroke-width:11.937;image-rendering:optimizeQuality;shape-rendering:geometricPrecision;text-rendering:geometricPrecision"
       d="m -161186.37,-130395.05 c 264.1,-50.48 505.51,-182.64 689.11,-377.27 146.98,-155.81 46.39,16.31 1731.37,-2962.6 607.34,-1073.77 1131.06,-2005.73 1163.83,-2071.07 115.94,-231.2 153.18,-403.62 142.38,-659.09 -9.86,-232.64 -40.67,-337.86 -173.71,-593.11 -101.9,-195.54 -1186.78,-2089.62 -1275.45,-2226.84 -126.28,-195.39 -205.55,-251.08 -370.27,-260.17 -207.95,-11.45 -309.79,58.86 -471.87,325.83 -115.04,189.44 -4546.82,8004.62 -4616.53,8140.99 -83.37,163.03 -105.2,253.81 -84.14,349.77 27.67,125.98 116.5,249.48 216.62,301.16 42.49,21.93 145.18,43.16 249.44,51.55 29.56,2.4 649.98,3.16 1378.72,1.73 1131.78,-2.25 1338.93,-5.28 1420.5,-20.88 z m 6624.77,14.71 c 65.52,-6.35 144.81,-20.11 176.2,-30.53 81.86,-27.18 178.57,-119.98 226.45,-217.25 33.83,-68.69 38.86,-90.92 38.36,-169.17 -1,-151.42 53.61,-49.6 -915.58,-1707.56 -819.01,-1401.08 -806.88,-1381.2 -903.91,-1480.07 -90.35,-92.04 -156.13,-119.48 -286.48,-119.48 -168.07,0 -268.41,63.75 -393.13,249.79 -59.98,89.47 -1166.03,1979.94 -1517.4,2593.52 -158.4,276.62 -194.94,370.48 -188.51,484.31 9.02,159.5 125.41,321.92 263.58,367.81 31.42,10.43 104.06,23.14 161.43,28.23 155.41,13.82 3197.3,14.18 3338.99,0.42 z" /></g></svg>
