<?xml version="1.0" encoding="UTF-8" standalone="no"?>
<!-- Created with Inkscape (http://www.inkscape.org/) -->

<svg
   width="140.58435mm"
   height="135.46664mm"
   viewBox="0 0 140.58435 135.46664"
   version="1.1"
   id="svg5"
   xml:space="preserve"
   sodipodi:docname="firstdraft ember.svg"
   inkscape:version="1.2.2 (b0a8486541, 2022-12-01)"
   inkscape:export-filename="Pictures/embr/embricon-big-svg.svg"
   inkscape:export-xdpi="96"
   inkscape:export-ydpi="96"
   xmlns:inkscape="http://www.inkscape.org/namespaces/inkscape"
   xmlns:sodipodi="http://sodipodi.sourceforge.net/DTD/sodipodi-0.dtd"
   xmlns="http://www.w3.org/2000/svg"
   xmlns:svg="http://www.w3.org/2000/svg"><sodipodi:namedview
     id="namedview7"
     pagecolor="#ffffff"
     bordercolor="#000000"
     borderopacity="0.25"
     inkscape:showpageshadow="2"
     inkscape:pageopacity="0.0"
     inkscape:pagecheckerboard="0"
     inkscape:deskcolor="#d1d1d1"
     inkscape:document-units="mm"
     showgrid="false"
     inkscape:zoom="2.8284272"
     inkscape:cx="532.98172"
     inkscape:cy="187.02974"
     inkscape:window-width="1920"
     inkscape:window-height="1054"
     inkscape:window-x="0"
     inkscape:window-y="0"
     inkscape:window-maximized="0"
     inkscape:current-layer="text375-1-0-9"
     showguides="true"><sodipodi:guide
       position="1691.0341,-143.10003"
       orientation="1,0"
       id="guide24367"
       inkscape:locked="false" /><sodipodi:guide
       position="927.33448,-89.541832"
       orientation="0,-1"
       id="guide37999"
       inkscape:locked="false" /><sodipodi:guide
       position="929.91321,-86.169632"
       orientation="1,0"
       id="guide38001"
       inkscape:locked="false" /></sodipodi:namedview><defs
     id="defs2" /><g
     style="clip-rule:evenodd;fill-rule:evenodd;image-rendering:optimizeQuality;shape-rendering:geometricPrecision;text-rendering:geometricPrecision"
     id="g39257"
     transform="matrix(0.00850092,0,0,0.00850092,1928.6228,1065.9638)"><g
       id="Layer_x0020_1"
       inkscape:label="Layer 1"
       inkscape:groupmode="layer">
  <metadata
   id="CorelCorpID_0Corel-Layer" />
  
 <ellipse
   style="clip-rule:evenodd;fill:#373555;fill-opacity:1;fill-rule:evenodd;stroke:none;stroke-width:667.99;stroke-miterlimit:2.5;stroke-dasharray:none;stroke-opacity:1;image-rendering:optimizeQuality;shape-rendering:geometricPrecision;text-rendering:geometricPrecision"
   id="path52682-7-5"
   ry="7967.7651"
   rx="8268.7686"
   cy="-117426.17"
   cx="-218603.48" /></g><path
       style="fill:#fdfce3;fill-opacity:1;stroke-width:26.5679"
       d="m -223388.8,-114840.03 c -344.51,-622.52 -579.03,-1550.07 -563.39,-2228.16 l 3.51,-151.68 96.57,117.33 c 363.94,442.14 585.64,658.45 959.85,936.51 1412.99,1289.44 5840.22,1156.83 4969.75,-222.34 l -433.77,-684.24 2345.04,234.93 c 1289.78,129.22 2347.24,241.61 2349.93,249.77 2.69,8.15 -310.76,1049.6 -696.54,2314.32 l -701.44,2299.48 -418.35,-633.46 c -269.06,-362.76 -256.44,-725.75 -680.32,-484.07 -909.38,518.49 -1975.19,791.82 -2987.15,766.06 -364.04,-9.24 -971.2,-99.79 -1305.9,-194.73 -1283.15,-363.96 -2299.67,-1166.61 -2937.79,-2319.72 z m 539.21,-5721.54 706.1,-2316.66 421.41,638.19 c 270.89,365.09 258.23,731.2 685.03,487.86 1483.28,-845.69 3274.61,-994.96 4775.71,-397.91 908.09,361.17 1605.26,910.19 2158.78,1700.03 359.09,512.35 563.6,965.7 715.59,1586.09 73.6,300.45 139.56,862.73 132.4,1128.48 l -4.14,154.46 -76.99,-117.15 c -42.35,-64.43 -157.01,-207.05 -254.79,-316.94 -575.91,-1472.13 -7020.86,-2438.05 -5680.57,-434.59 l 435.03,686.19 -2302.41,-230.84 -2359.83,-240.67 z"
       id="path8125"
       sodipodi:nodetypes="sscscccssscccscsccccsssscscccccc" /><ellipse
       style="clip-rule:evenodd;fill:none;fill-opacity:1;fill-rule:evenodd;stroke:#fdfce3;stroke-width:580.924;stroke-miterlimit:2.5;stroke-dasharray:none;stroke-opacity:1;image-rendering:optimizeQuality;shape-rendering:geometricPrecision;text-rendering:geometricPrecision"
       id="path52682-0-3-6"
       ry="6929.2378"
       rx="7191.0088"
       cy="-117426.17"
       cx="-218603.48" /></g></svg>
